<svg width="16" height="11" viewBox="0 0 16 11" fill="none" xmlns="http://www.w3.org/2000/svg">
<path d="M0 5.5C0 5.5 3 0 8 0C13 0 16 5.5 16 5.5C16 5.5 13 11 8 11C3 11 0 5.5 0 5.5ZM8 9C8.92826 9 9.8185 8.63125 10.4749 7.97487C11.1313 7.3185 11.5 6.42826 11.5 5.5C11.5 4.57174 11.1313 3.6815 10.4749 3.02513C9.8185 2.36875 8.92826 2 8 2C7.07174 2 6.1815 2.36875 5.52513 3.02513C4.86875 3.6815 4.5 4.57174 4.5 5.5C4.5 6.42826 4.86875 7.3185 5.52513 7.97487C6.1815 8.63125 7.07174 9 8 9Z" fill="black"/>
</svg>
