<svg width="26" height="26" viewBox="0 0 26 26" fill="none" xmlns="http://www.w3.org/2000/svg">
<g clip-path="url(#clip0_5013_194)">
<path d="M20.502 13.05C20.502 8.604 16.92 5 12.502 5C8.082 5.001 4.5 8.604 4.5 13.051C4.5 17.068 7.426 20.398 11.25 21.002V15.377H9.22V13.051H11.252V11.276C11.252 9.259 12.447 8.145 14.274 8.145C15.15 8.145 16.065 8.302 16.065 8.302V10.282H15.056C14.063 10.282 13.753 10.903 13.753 11.54V13.05H15.971L15.617 15.376H13.752V21.001C17.576 20.397 20.502 17.067 20.502 13.05Z" fill="white"/>
</g>
<defs>
<clipPath id="clip0_5013_194">
<rect width="16" height="16" fill="white" transform="translate(5 5)"/>
</clipPath>
</defs>
</svg>
