<svg width="16" height="12" viewBox="0 0 16 12" fill="none" xmlns="http://www.w3.org/2000/svg">
<path d="M-0.5 2C-0.5 1.46957 -0.289286 0.960859 0.0857865 0.585786C0.460859 0.210714 0.969567 0 1.5 0H13.5C14.0304 0 14.5391 0.210714 14.9142 0.585786C15.2893 0.960859 15.5 1.46957 15.5 2V10C15.5 10.5304 15.2893 11.0391 14.9142 11.4142C14.5391 11.7893 14.0304 12 13.5 12H1.5C0.969567 12 0.460859 11.7893 0.0857865 11.4142C-0.289286 11.0391 -0.5 10.5304 -0.5 10V2ZM1.5 1C1.23478 1 0.98043 1.10536 0.792893 1.29289C0.605357 1.48043 0.5 1.73478 0.5 2V2.217L7.5 6.417L14.5 2.217V2C14.5 1.73478 14.3946 1.48043 14.2071 1.29289C14.0196 1.10536 13.7652 1 13.5 1H1.5ZM14.5 3.383L9.742 6.238L14.5 9.114V3.384V3.383ZM14.466 10.261L8.771 6.82L7.5 7.583L6.228 6.82L0.534 10.26C0.591198 10.4724 0.716848 10.6601 0.891488 10.7938C1.06613 10.9276 1.28001 11.0001 1.5 11H13.5C13.7199 11.0001 13.9336 10.9278 14.1083 10.7942C14.2829 10.6607 14.4086 10.4732 14.466 10.261ZM0.5 9.114L5.258 6.238L0.5 3.383V9.113V9.114Z" fill="white"/>
</svg>
