<svg width="26" height="26" viewBox="0 0 26 26" fill="none" xmlns="http://www.w3.org/2000/svg">
<g clip-path="url(#clip0_5013_197)">
<path d="M9.526 19.0007C15.564 19.0007 18.867 13.9977 18.867 9.66669C18.867 9.52669 18.867 9.38469 18.861 9.24469C19.5041 8.77918 20.0591 8.20284 20.5 7.54269C19.8993 7.80754 19.2628 7.9821 18.611 8.06069C19.2975 7.65033 19.8117 7.00466 20.058 6.24369C19.413 6.62582 18.707 6.89407 17.971 7.03669C17.4762 6.50972 16.8214 6.16061 16.1081 6.04345C15.3948 5.92629 14.6627 6.04761 14.0253 6.38863C13.388 6.72965 12.8808 7.27132 12.5824 7.92975C12.2841 8.58818 12.2112 9.32663 12.375 10.0307C11.0697 9.96524 9.79282 9.62616 8.62704 9.03544C7.46127 8.44471 6.43268 7.61554 5.608 6.60169C5.18934 7.32478 5.06157 8.18009 5.25065 8.99396C5.43972 9.80782 5.93145 10.5192 6.626 10.9837C6.10554 10.966 5.59652 10.8263 5.14 10.5757V10.6207C5.1409 11.3782 5.40331 12.1121 5.88287 12.6985C6.36244 13.2848 7.02975 13.6876 7.772 13.8387C7.49026 13.9163 7.19923 13.955 6.907 13.9537C6.70098 13.9543 6.49538 13.9352 6.293 13.8967C6.50279 14.5487 6.91127 15.1189 7.46125 15.5272C8.01122 15.9355 8.67513 16.1615 9.36 16.1737C8.19656 17.0875 6.7594 17.5831 5.28 17.5807C5.01932 17.5818 4.75882 17.5668 4.5 17.5357C6.00151 18.493 7.7453 19.0012 9.526 19.0007Z" fill="white"/>
</g>
<defs>
<clipPath id="clip0_5013_197">
<rect width="16" height="16" fill="white" transform="translate(5 5)"/>
</clipPath>
</defs>
</svg>
