<svg width="26" height="26" viewBox="0 0 26 26" fill="none" xmlns="http://www.w3.org/2000/svg">
<g clip-path="url(#clip0_5013_191)">
<path d="M13.551 6.99902H13.64C14.462 7.00202 18.627 7.03202 19.75 7.33402C20.0895 7.42619 20.3989 7.60585 20.6472 7.85503C20.8955 8.10422 21.074 8.41421 21.165 8.75402C21.266 9.13402 21.337 9.63702 21.385 10.156L21.395 10.26L21.417 10.52L21.425 10.624C21.49 11.538 21.498 12.394 21.499 12.581V12.656C21.498 12.85 21.489 13.764 21.417 14.716L21.409 14.821L21.4 14.925C21.35 15.497 21.276 16.065 21.165 16.483C21.0743 16.823 20.8958 17.1331 20.6475 17.3823C20.3991 17.6316 20.0896 17.8111 19.75 17.903C18.59 18.215 14.181 18.237 13.57 18.238H13.428C13.119 18.238 11.841 18.232 10.501 18.186L10.331 18.18L10.244 18.176L10.073 18.169L9.902 18.162C8.792 18.113 7.735 18.034 7.248 17.902C6.90849 17.8102 6.59907 17.6308 6.35072 17.3818C6.10238 17.1327 5.92385 16.8228 5.833 16.483C5.722 16.066 5.648 15.497 5.598 14.925L5.59 14.82L5.582 14.716C5.53265 14.0384 5.5053 13.3594 5.5 12.68L5.5 12.557C5.502 12.342 5.51 11.599 5.564 10.779L5.571 10.676L5.574 10.624L5.582 10.52L5.604 10.26L5.614 10.156C5.662 9.63702 5.733 9.13302 5.834 8.75402C5.92469 8.41407 6.10316 8.10393 6.35151 7.85471C6.59986 7.60548 6.90937 7.42592 7.249 7.33402C7.736 7.20402 8.793 7.12402 9.903 7.07402L10.073 7.06702L10.245 7.06102L10.331 7.05802L10.502 7.05102C11.4537 7.0204 12.4058 7.0034 13.358 7.00002H13.551V6.99902ZM11.9 10.209V15.027L16.057 12.619L11.9 10.209Z" fill="white"/>
</g>
<defs>
<clipPath id="clip0_5013_191">
<rect width="16" height="16" fill="white" transform="translate(5 5)"/>
</clipPath>
</defs>
</svg>
